<svg version="1.0" xmlns="http://www.w3.org/2000/svg"
     width="512" height="512" viewBox="0 0 491.320681 489.694137"
     preserveAspectRatio="xMidYMid meet">
    <metadata>Created by Svg.la</metadata>
    <g transform="translate(-265.146355,757.858963) scale(0.100000,-0.100000)"
       fill="#60bffb" stroke="none">
        <path d="M4960 7573 c-433 -30 -835 -162 -1181 -386 -273 -177 -544 -444 -726
-717 -254 -382 -386 -800 -400 -1265 -11 -354 39 -642 166 -967 205 -522 612
-984 1106 -1254 291 -160 613 -260 944 -295 144 -15 468 -6 611 16 637 100
1213 445 1598 957 242 322 392 672 465 1088 18 107 22 162 22 390 0 289 -10
366 -74 616 -148 565 -528 1088 -1041 1427 -421 278 -986 426 -1490 390z m553
-142 c531 -99 997 -355 1339 -735 310 -343 499 -731 579 -1186 30 -168 37
-472 15 -653 -71 -578 -357 -1113 -801 -1495 -221 -190 -457 -328 -730 -427
-541 -196 -1142 -188 -1673 24 -689 275 -1217 868 -1403 1575 -60 232 -73 338
-73 601 0 180 5 265 17 340 87 506 286 904 632 1264 375 389 846 629 1390 706
150 21 564 13 708 -14z"/>
        <path d="M5015 7374 c-144 -20 -198 -30 -316 -59 -380 -94 -740 -280 -1054
-545 -134 -114 -299 -306 -401 -467 -162 -258 -271 -557 -310 -853 -22 -170
-15 -489 14 -641 113 -583 387 -1026 842 -1360 349 -256 715 -409 1110 -465
217 -31 438 -13 685 56 356 100 792 340 1041 573 423 396 674 976 674 1557 0
730 -384 1431 -1004 1835 -213 139 -570 280 -861 341 -115 23 -343 39 -420 28z
m65 -146 c0 -29 -3 -77 -6 -105 l-7 -53 -103 0 c-57 0 -104 3 -104 6 0 24 186
204 211 204 5 0 9 -24 9 -52z m113 31 c38 -26 187 -170 187 -181 0 -5 -56 -8
-125 -8 l-125 0 0 89 c0 129 6 138 63 100z m-503 -62 c-63 -34 -129 -72 -147
-84 -32 -24 -77 -28 -138 -14 -30 7 -29 8 30 35 128 59 308 123 350 125 11 1
-32 -27 -95 -62z m760 3 c36 -18 94 -51 129 -73 60 -38 63 -42 41 -48 -14 -4
-50 -7 -80 -8 l-55 -1 -87 87 c-49 48 -88 91 -88 95 0 10 64 -14 140 -52z
m185 14 c136 -46 261 -97 266 -109 2 -6 -25 -14 -63 -19 l-66 -8 -104 65 c-57
35 -122 74 -145 86 -86 43 -46 38 112 -15z m-796 -59 c-71 -85 -71 -85 -118
-84 -25 1 -59 4 -76 8 l-30 6 32 23 c33 23 242 131 256 132 4 0 -24 -38 -64
-85z m-419 -102 l34 -8 -31 -20 c-53 -34 -235 -201 -298 -274 -69 -80 -77 -82
-198 -52 -102 27 -162 57 -147 76 22 26 232 157 376 235 l144 77 43 -12 c23
-7 58 -17 77 -22z m1708 -48 c210 -125 402 -269 384 -287 -11 -11 -148 -41
-239 -53 l-53 -7 -147 150 c-82 82 -172 168 -201 190 -29 22 -49 43 -45 45 5
3 35 8 69 12 33 3 67 11 75 16 8 5 18 9 22 9 5 0 66 -34 135 -75z m-1456 26
l58 -6 -67 -115 c-36 -63 -84 -153 -106 -199 l-41 -84 -70 7 c-187 16 -292 27
-305 32 -24 8 167 193 354 341 43 34 64 37 177 24z m1112 -48 c39 -31 134
-120 211 -197 l140 -141 -60 -6 c-33 -4 -121 -10 -195 -13 l-135 -7 -47 98
c-26 54 -79 145 -117 203 l-69 105 61 6 c139 13 134 14 211 -48z m-282 -58
c81 -118 173 -294 161 -305 -4 -5 -131 -10 -281 -12 l-272 -3 0 55 c0 30 3
126 7 213 l6 157 155 -2 155 -3 69 -100z m-432 28 c0 -38 -3 -133 -7 -212 l-6
-144 -148 6 c-272 12 -320 18 -314 37 10 32 122 237 169 308 l47 72 129 0 130
0 0 -67z m-1320 -287 c41 -12 107 -29 145 -35 113 -21 112 -20 75 -66 -87
-108 -264 -397 -291 -473 -9 -26 -16 -32 -39 -32 -38 0 -284 63 -337 86 -48
22 -50 10 23 131 23 37 70 104 103 148 66 85 228 265 239 265 4 0 41 -11 82
-24z m2936 -103 c124 -150 284 -377 284 -402 0 -10 -93 -52 -165 -75 -53 -17
-187 -46 -211 -46 -8 0 -22 19 -31 43 -57 141 -168 335 -272 474 l-32 41 58 7
c82 9 219 34 246 45 12 5 27 9 32 9 6 1 47 -43 91 -96z m-2396 17 c91 -7 172
-15 181 -18 15 -6 11 -21 -27 -118 -24 -62 -65 -185 -91 -275 -25 -90 -49
-167 -52 -171 -9 -11 -538 38 -561 52 -14 9 28 105 95 216 53 87 212 315 229
326 6 5 22 6 36 3 14 -2 99 -9 190 -15z m1934 -53 c92 -124 163 -239 227 -366
34 -67 60 -124 58 -125 -4 -3 -316 -31 -471 -43 l-87 -6 -6 39 c-15 89 -76
297 -123 416 l-49 126 81 6 c101 8 287 23 303 25 7 0 37 -32 67 -72z m-1180
19 c10 -2 10 -98 0 -408 l-7 -187 -101 5 c-339 14 -552 27 -559 33 -16 16 110
425 164 532 l18 36 238 -4 c131 -3 242 -6 247 -7z m710 -121 c43 -116 132
-432 124 -440 -4 -5 -573 -25 -687 -25 l-91 0 0 213 c0 116 3 249 7 294 l6 82
101 4 c56 1 189 3 296 2 l195 0 49 -130z m-2409 -385 c55 -16 134 -34 176 -40
42 -7 81 -15 87 -19 8 -4 -2 -47 -29 -126 -45 -138 -86 -338 -97 -474 l-7 -94
-195 2 c-107 1 -215 4 -240 7 l-46 6 8 77 c19 202 99 484 183 650 20 41 30 51
43 46 9 -3 62 -19 117 -35z m3701 -27 c45 -101 102 -277 128 -395 31 -141 52
-306 40 -318 -10 -10 -420 -30 -458 -23 -22 5 -23 11 -30 106 -7 119 -52 350
-95 492 -16 55 -29 100 -28 100 1 1 47 8 103 17 55 10 140 30 190 47 49 16 97
29 107 30 12 1 25 -17 43 -56z m-3051 -68 c116 -9 229 -18 251 -21 l41 -5 -13
-62 c-24 -119 -56 -352 -63 -462 l-6 -110 -332 -3 -333 -2 0 49 c0 99 53 359
107 526 39 120 37 118 91 112 26 -3 142 -13 257 -22z m2580 -84 c20 -60 45
-146 56 -192 20 -83 49 -303 49 -368 l0 -34 -227 6 c-124 4 -267 7 -318 7
l-91 0 -12 158 c-10 134 -33 315 -58 453 l-6 37 118 7 c66 4 184 13 264 19 80
7 155 14 167 15 19 1 26 -13 58 -108z m-672 24 c26 -128 49 -320 54 -454 l6
-154 -39 6 c-22 4 -216 7 -432 7 l-392 0 2 308 3 307 345 11 c190 6 367 11
395 10 49 -1 49 -1 58 -41z m-1155 19 l292 -7 0 -309 0 -308 -381 0 -382 0 8
113 c8 128 27 287 51 431 l17 98 51 -6 c28 -3 183 -8 344 -12z m-1499 -694
l217 0 12 -177 c12 -186 39 -358 71 -462 l19 -61 -126 0 c-69 0 -177 5 -239
11 l-112 12 -15 51 c-50 175 -73 310 -82 482 -7 131 -3 160 22 150 9 -3 113
-6 233 -6z m1793 -147 c3 -87 4 -250 4 -363 l-1 -205 -366 -3 -367 -2 -6 42
c-18 132 -27 276 -29 463 l-2 210 150 5 c83 3 254 7 382 8 l231 2 4 -157z
m761 150 l167 -6 -6 -136 c-6 -142 -27 -363 -47 -491 l-12 -75 -400 0 -400 0
-3 358 -2 357 268 0 c148 0 344 -3 435 -7z m-1603 -175 c0 -95 7 -255 16 -356
9 -101 14 -185 12 -188 -3 -2 -140 -1 -304 3 l-299 8 -22 76 c-37 130 -64 317
-70 477 l-6 152 337 0 336 0 0 -172z m2478 157 c2 -2 -1 -62 -8 -134 -12 -149
-38 -299 -76 -452 l-27 -106 -102 -6 c-93 -6 -485 2 -485 9 0 2 9 59 20 126
25 161 40 328 40 459 0 58 2 108 4 110 5 5 629 -1 634 -6z m542 -67 c-1 -141
-45 -403 -96 -559 -14 -44 -17 -47 -57 -53 -67 -10 -427 -20 -427 -12 0 4 9
42 19 84 34 131 61 312 67 432 3 63 7 130 10 147 l5 33 212 3 c117 1 224 3
240 5 l27 2 0 -82z m-3639 -696 c3 -4 23 -50 44 -102 50 -126 160 -330 241
-448 35 -52 63 -96 62 -97 -2 -1 -86 -7 -188 -14 l-185 -12 -38 43 c-53 61
-170 216 -216 288 -47 72 -131 234 -159 305 l-20 50 227 -3 c124 -2 229 -7
232 -10z m3478 -44 c-76 -194 -224 -443 -370 -621 -5 -7 -349 19 -356 27 -2 1
18 38 43 82 66 115 146 286 183 389 18 50 38 104 44 122 l12 32 209 6 c115 3
212 7 214 10 3 3 14 5 24 5 17 0 17 -3 -3 -52z m-2789 -98 c29 -144 76 -327
110 -424 11 -33 18 -62 15 -65 -3 -3 -97 -7 -208 -9 l-202 -3 -86 133 c-105
161 -222 392 -244 481 l-7 27 298 -2 297 -3 27 -135z m780 -168 l0 -309 -197
-6 c-108 -4 -237 -7 -288 -7 l-92 0 -12 38 c-60 183 -104 361 -136 555 l-6 37
366 0 365 0 0 -308z m840 302 c0 -38 -73 -318 -131 -506 l-30 -98 -310 0 -309
0 0 305 0 305 390 0 c215 0 390 -3 390 -6z m650 -3 c0 -40 -134 -348 -221
-511 l-56 -105 -229 4 c-126 2 -232 5 -236 7 -3 2 3 27 13 55 30 78 105 341
130 457 l22 102 289 0 c171 0 288 -4 288 -9z m-1490 -693 c1 -94 21 -568 26
-627 l7 -74 -46 5 c-85 10 -222 129 -335 291 -49 71 -157 277 -183 352 l-18
50 252 11 c139 6 262 11 275 12 17 2 22 -3 22 -20z m174 -35 c-27 -301 -91
-687 -94 -563 -1 19 -5 163 -9 320 -5 157 -7 288 -4 293 2 4 28 7 58 7 l54 0
-5 -57z m476 52 c0 -12 -77 -189 -117 -270 -90 -179 -192 -308 -317 -401 -32
-24 -69 -44 -82 -44 -20 0 -23 4 -19 28 27 149 56 359 71 510 l17 182 224 0
c123 0 223 -2 223 -5z m373 -14 c70 -4 130 -10 133 -13 7 -8 -102 -162 -194
-277 -42 -51 -121 -135 -175 -186 l-98 -93 -112 -31 c-139 -38 -217 -55 -223
-48 -3 3 23 42 59 86 87 110 181 271 243 416 28 66 54 128 57 138 5 14 19 17
94 17 48 -1 145 -5 216 -9z m-1613 -96 c80 -196 196 -394 294 -502 27 -30 42
-53 34 -53 -33 0 -239 64 -342 106 -240 98 -496 239 -630 346 -75 59 -169 149
-163 155 8 8 223 32 287 32 l55 1 55 -66 c52 -63 171 -177 291 -277 46 -38 59
-45 68 -34 8 11 3 20 -27 44 -122 99 -332 311 -332 335 0 5 84 7 186 6 l187
-3 37 -90z m1983 65 c71 -10 131 -21 133 -23 6 -6 -115 -112 -186 -164 -129
-94 -433 -263 -447 -249 -3 3 19 32 50 65 65 71 223 278 262 345 15 26 34 46
43 46 10 0 75 -9 145 -20z"/>
    </g>
</svg>